# ProBuilder 5.0.7
# https://unity3d.com/unity/features/worldbuilding/probuilder
# 2023-10-11 오후 1:56:51

mtllib ./redarrow.mtl
o redarrow

g Prism
v 25 -25.00018 -9.999939
v -25 -25.00018 -9.999939
v 0 24.99982 -9.999939
v -25 -25.00018 10.00006
v 0 24.99982 10.00006
v 25 -25.00018 10.00006
v 10 -24.70002 10
v -10 -24.70002 10
v 10 -24.70002 -9.999997
v -10 -24.70002 -9.999997
v -10 -74.70002 10.00001
v -10 -74.70002 -9.999992
v 10 -74.70002 10.00001
v 10 -74.70002 -9.999992

vt -25 -25.00018
vt 25 -25.00018
vt 0 24.99982
vt -9.999939 -33.54118
vt 10.00006 -33.54118
vt -9.999939 22.36052
vt 10.00006 22.36052
vt -10.00006 -33.54118
vt 9.999939 -33.54118
vt -10.00006 22.36052
vt 9.999939 22.36052
vt 25 -9.999939
vt -25 -9.999939
vt 25 10.00006
vt -25 10.00006
vt 9.999969 -10
vt -10.00003 -10
vt 9.999971 10
vt -10.00003 10
vt 25 -10
vt -25 -10
vt -25 9.999996
vt 10.00003 -10
vt -9.999971 -10
vt 10.00003 10
vt -9.999969 10
vt 25 -10
vt 25 9.999996
vt -9.999969 25
vt 10.00003 25
vt -9.999969 -25
vt 10.00003 -25
vt 9.999969 -25
vt -10.00003 -25
vt 9.999969 25
vt -10.00003 25

vn 0 0 -1
vn -0.8944272 0.4472136 0
vn 0 0 1
vn 0.8944272 0.4472136 0
vn 0 -1 0
vn 0 1 0
vn -1 0 0
vn 1 0 0

usemtl New_Material
f 1/1/1 2/2/1 3/3/1
f 4/1/3 6/2/3 5/3/3
f 3/6/2 2/4/2 4/5/2
f 4/5/2 5/7/2 3/6/2
f 5/10/4 6/8/4 1/9/4
f 1/9/4 3/11/4 5/10/4
f 4/15/5 2/13/5 1/12/5
f 1/12/5 6/14/5 4/15/5
f 10/19/6 8/17/6 7/16/6
f 7/16/6 9/18/6 10/19/6
f 12/22/7 11/21/7 8/20/7
f 8/20/7 10/14/7 12/22/7
f 14/26/5 13/24/5 11/23/5
f 11/23/5 12/25/5 14/26/5
f 9/15/8 7/13/8 13/27/8
f 13/27/8 14/28/8 9/15/8
f 12/32/1 10/30/1 9/29/1
f 9/29/1 14/31/1 12/32/1
f 8/36/3 11/34/3 13/33/3
f 13/33/3 7/35/3 8/36/3

